<svg width="21" height="19" fill="none" xmlns="http://www.w3.org/2000/svg"><path d="M11.045 18.654l8.118-8.368a5.916 5.916 0 001.637-4.11 5.914 5.914 0 00-1.659-4.102A5.594 5.594 0 0017.318.808a5.498 5.498 0 00-4.323-.01 5.594 5.594 0 00-1.83 1.256l-.774.8-.787-.81A5.588 5.588 0 007.784.78 5.492 5.492 0 003.466.77 5.586 5.586 0 001.64 2.023c-2.194 2.263-2.184 5.941.021 8.215l8.16 8.416a.848.848 0 001.225 0zM12.09 2.987a4.29 4.29 0 011.406-.965 4.22 4.22 0 013.321.012 4.295 4.295 0 011.4.974 4.573 4.573 0 011.282 3.168 4.573 4.573 0 01-1.261 3.177v.002L10.432 17.4 2.583 9.304C.876 7.544.875 4.698 2.563 2.956c.401-.412.879-.74 1.405-.963a4.216 4.216 0 013.316.012c.524.226 1 .557 1.397.973L9.93 4.265a.649.649 0 00.463.197.639.639 0 00.462-.197l1.236-1.278z" fill="#fff"/></svg>