<svg width="16" height="16" fill="none" xmlns="http://www.w3.org/2000/svg"><path d="M12.062 15.111H3.938a1.301 1.301 0 01-1.272-1.333V4.99h.89v8.787a.413.413 0 00.382.444h8.124a.415.415 0 00.382-.444V4.99h.89v8.787a1.302 1.302 0 01-1.272 1.333zM13.68 4H2.222a.444.444 0 010-.889H13.68a.444.444 0 010 .89z" fill="red"/><path d="M9.333 5.777h.889v6.667h-.889V5.777zm-3.556 0h.89v6.667h-.89V5.777zm4.445-3.173h-.845v-.826H6.622v.826h-.845v-.826a.889.889 0 01.845-.89h2.755a.889.889 0 01.845.89v.826z" fill="red"/></svg>