<svg width="21" height="18" fill="none" xmlns="http://www.w3.org/2000/svg"><path d="M10.338 17.436h0l-.006-.007-7.313-7.054-.017-.017-.018-.014a3.44 3.44 0 01-.276-.263c-.118-.121-.321-.36-.618-.731a9.87 9.87 0 01-.759-1.088 6.604 6.604 0 01-.58-1.318A4.634 4.634 0 01.5 5.484c0-1.618.464-2.82 1.338-3.673C2.714.956 3.946.5 5.602.5c.425 0 .866.074 1.324.226a5.5 5.5 0 011.29.623c.424.28.784.538 1.081.776.298.238.581.492.85.76l.353.353.354-.353c.268-.268.55-.522.849-.76a14.25 14.25 0 011.082-.776 5.5 5.5 0 011.29-.623A4.172 4.172 0 0115.397.5c1.656 0 2.889.456 3.764 1.31.874.854 1.338 2.056 1.338 3.674 0 1.542-.797 3.18-2.534 4.917l-7.297 7.028h0l-.007.007a.204.204 0 01-.162.064.204.204 0 01-.162-.064z" fill="#fff" stroke="#2D2D2D"/></svg>