<svg version="1.0" xmlns="http://www.w3.org/2000/svg" viewBox="0 0 811 335"><path d="M175.34 159.74l6.23-3.74c4.38 8.07 9.45 12.1 15.19 12.1 2.46 0 4.76-.57 6.92-1.72s3.8-2.68 4.93-4.61c1.13-1.93 1.69-3.97 1.69-6.13 0-2.46-.83-4.86-2.49-7.22-2.29-3.25-6.48-7.17-12.55-11.75-6.11-4.62-9.91-7.95-11.41-10.01-2.59-3.45-3.88-7.19-3.88-11.21 0-3.19.76-6.09 2.29-8.72 1.53-2.62 3.68-4.69 6.45-6.2 2.77-1.51 5.79-2.27 9.04-2.27 3.45 0 6.68.85 9.69 2.56 3 1.71 6.18 4.86 9.54 9.44l-5.98 4.53c-2.76-3.65-5.1-6.06-7.05-7.22-1.94-1.16-4.06-1.74-6.35-1.74-2.96 0-5.37.9-7.25 2.69s-2.81 4-2.81 6.62c0 1.59.33 3.14 1 4.63.66 1.49 1.88 3.12 3.64 4.88.96.93 4.12 3.37 9.46 7.32 6.34 4.68 10.69 8.85 13.05 12.5 2.36 3.65 3.54 7.32 3.54 11.01 0 5.31-2.02 9.93-6.05 13.85-4.03 3.92-8.94 5.88-14.72 5.88-4.45 0-8.48-1.19-12.1-3.56-3.62-2.35-6.96-6.33-10.02-11.91zm88.31-59.62l34.17 73.27h-7.91l-11.52-24.11h-31.56l-11.41 24.11h-8.17l34.62-73.27h1.78zm-.92 15.57l-12.55 26.52h25.05l-12.5-26.52zm46.84-15.57h14.59c8.13 0 13.65.33 16.54 1 4.35 1 7.89 3.13 10.61 6.41 2.72 3.27 4.08 7.31 4.08 12.09 0 3.99-.94 7.5-2.81 10.52-1.88 3.03-4.56 5.31-8.04 6.86-3.49 1.55-8.3 2.34-14.44 2.37l26.35 34.02h-9.06l-26.35-34.02h-4.14v34.02h-7.32v-73.27zm7.33 7.18v24.9l12.62.1c4.89 0 8.51-.46 10.85-1.39 2.34-.93 4.17-2.42 5.49-4.46 1.31-2.04 1.97-4.32 1.97-6.85 0-2.46-.67-4.69-2-6.7s-3.08-3.44-5.24-4.31c-2.16-.86-5.75-1.29-10.78-1.29H316.9zm84.12-7.18l34.17 73.27h-7.91l-11.52-24.11H384.2l-11.41 24.11h-8.17l34.62-73.27h1.78zm-.93 15.57l-12.55 26.52h25.05l-12.5-26.52zm46.45-15.57h36.71v7.17h-29.39v22.96h29.39v7.17h-29.39v35.96h-7.32v-73.26zm79.4 0l34.17 73.27h-7.91l-11.52-24.11h-31.56l-11.41 24.11h-8.17l34.62-73.27h1.78zm-.93 15.57l-12.55 26.52h25.05l-12.5-26.52zm46.5 57.7v-73.27h1.59l48.76 56.16v-56.16h7.22v73.27h-1.64l-48.36-55.48v55.48h-7.57zm-285.44 31.37l-2.89 2.22c-1.59-2.08-3.51-3.65-5.74-4.72-2.23-1.07-4.69-1.61-7.36-1.61-2.92 0-5.63.7-8.12 2.1s-4.42 3.29-5.79 5.65c-1.37 2.37-2.05 5.03-2.05 7.98 0 4.47 1.53 8.19 4.59 11.18 3.06 2.99 6.93 4.48 11.59 4.48 5.13 0 9.42-2.01 12.88-6.03l2.89 2.19c-1.83 2.32-4.1 4.12-6.84 5.39-2.73 1.27-5.78 1.91-9.15 1.91-6.41 0-11.46-2.13-15.17-6.4-3.1-3.6-4.66-7.95-4.66-13.05 0-5.36 1.88-9.87 5.64-13.54 3.76-3.66 8.47-5.49 14.13-5.49 3.42 0 6.51.68 9.26 2.03 2.77 1.37 5.03 3.27 6.79 5.71zm24.79-7.72c5.55 0 10.19 1.85 13.93 5.55s5.61 8.26 5.61 13.67c0 5.36-1.87 9.91-5.59 13.65-3.73 3.74-8.28 5.6-13.64 5.6-5.43 0-10.02-1.86-13.76-5.58-3.74-3.72-5.61-8.22-5.61-13.5 0-3.52.85-6.78 2.55-9.79s4.02-5.36 6.96-7.06c2.94-1.69 6.12-2.54 9.55-2.54zm.16 3.56c-2.71 0-5.28.71-7.71 2.12-2.43 1.41-4.32 3.31-5.69 5.71-1.36 2.39-2.04 5.06-2.04 8 0 4.35 1.51 8.03 4.53 11.03 3.02 3 6.66 4.5 10.91 4.5 2.84 0 5.47-.69 7.89-2.07s4.31-3.26 5.66-5.66c1.36-2.39 2.03-5.05 2.03-7.98 0-2.91-.68-5.54-2.03-7.89-1.35-2.35-3.26-4.23-5.72-5.64-2.46-1.41-5.07-2.12-7.83-2.12zm26.72-2.64h3.66v33.1h14.1v3.54h-17.76v-36.64zm23.56 0h3.66v33.1h14.1v3.54H361.3v-36.64zm23.58 0h20.99v3.59h-17.33v11.48h17.18v3.59h-17.18v14.39h17.18v3.59h-20.84v-36.64zm61.44 6.8l-2.89 2.22c-1.59-2.08-3.51-3.65-5.74-4.72-2.23-1.07-4.69-1.61-7.36-1.61-2.92 0-5.63.7-8.12 2.1s-4.42 3.29-5.79 5.65c-1.37 2.37-2.05 5.03-2.05 7.98 0 4.47 1.53 8.19 4.59 11.18 3.06 2.99 6.93 4.48 11.59 4.48 5.13 0 9.42-2.01 12.88-6.03l2.89 2.19c-1.83 2.32-4.1 4.12-6.84 5.39-2.73 1.27-5.78 1.91-9.15 1.91-6.41 0-11.46-2.13-15.17-6.4-3.1-3.6-4.66-7.95-4.66-13.05 0-5.36 1.88-9.87 5.64-13.54 3.76-3.66 8.47-5.49 14.13-5.49 3.42 0 6.51.68 9.26 2.03s5.03 3.27 6.79 5.71zm3.71-3.21v-3.59h20.07v3.59h-8.17v33.05h-3.74v-33.05h-8.16zm24.83-3.59h3.66v36.63h-3.66v-36.63zm29.5-.92c5.55 0 10.19 1.85 13.93 5.55 3.74 3.7 5.61 8.26 5.61 13.67 0 5.36-1.87 9.91-5.59 13.65s-8.28 5.6-13.64 5.6c-5.43 0-10.02-1.86-13.76-5.58-3.74-3.72-5.61-8.22-5.61-13.5 0-3.52.85-6.78 2.55-9.79 1.7-3 4.02-5.36 6.96-7.06 2.94-1.69 6.12-2.54 9.55-2.54zm.16 3.56c-2.71 0-5.28.71-7.71 2.12-2.43 1.41-4.32 3.31-5.69 5.71-1.36 2.39-2.05 5.06-2.05 8 0 4.35 1.51 8.03 4.53 11.03 3.02 3 6.66 4.5 10.91 4.5 2.84 0 5.47-.69 7.89-2.07s4.31-3.26 5.66-5.66c1.36-2.39 2.03-5.05 2.03-7.98 0-2.91-.68-5.54-2.03-7.89s-3.26-4.23-5.72-5.64c-2.45-1.41-5.06-2.12-7.82-2.12zm26.74 33.99v-36.63h.8l24.38 28.08v-28.08h3.61v36.63h-.82l-24.18-27.74v27.74h-3.79z" fill="#231f20"/></svg>